<svg width="48" height="48" viewBox="0 0 48 48" fill="none" xmlns="http://www.w3.org/2000/svg">
<path fill-rule="evenodd" clip-rule="evenodd" d="M34.3543 2.52343C29.7152 0.286223 24.4763 -0.388613 19.4217 0.599901C14.3671 1.58841 9.76842 4.18713 6.3139 8.00717C2.85938 11.8272 0.734728 16.6632 0.257871 21.7915C-0.218986 26.9197 0.977594 32.0645 3.66856 36.456L0.263986 45.5246C0.157553 45.808 0.128064 46.1145 0.178518 46.413C0.228971 46.7115 0.357567 46.9913 0.55123 47.224C0.744893 47.4566 0.996716 47.6339 1.28109 47.7377C1.56547 47.8415 1.87226 47.8681 2.17027 47.8149L14.0537 45.6651C19.7746 48.3572 26.3307 48.6663 32.2796 46.5245C35.2251 45.464 37.933 43.8337 40.2485 41.7267C42.564 39.6197 44.4419 37.0773 45.7748 34.2446C47.1078 31.4118 47.8698 28.3443 48.0172 25.2171C48.1647 22.0899 47.6947 18.9643 46.6342 16.0187C45.5737 13.0731 43.9434 10.3653 41.8364 8.04976C39.7294 5.73423 37.187 3.85638 34.3543 2.52343Z" fill="#BABABA"/>
<path fill-rule="evenodd" clip-rule="evenodd" d="M24.6651 15.0446C24.1701 14.9456 23.6594 14.9578 23.1696 15.0801C22.6799 15.2025 22.2235 15.432 21.8332 15.7521C21.4429 16.0722 21.1285 16.4749 20.9127 16.9313C20.6968 17.3876 20.585 17.8861 20.5851 18.3909C20.5851 18.9592 20.3594 19.5042 19.9575 19.9061C19.5556 20.3079 19.0106 20.5337 18.4423 20.5337C17.8739 20.5337 17.3289 20.3079 16.927 19.9061C16.5252 19.5042 16.2994 18.9592 16.2994 18.3909C16.2999 16.961 16.6987 15.5595 17.451 14.3435C18.2033 13.1276 19.2795 12.1452 20.5589 11.5066C21.8382 10.868 23.2702 10.5984 24.6942 10.728C26.1182 10.8576 27.478 11.3813 28.621 12.2404C29.7641 13.0994 30.6452 14.2599 31.1657 15.5917C31.6861 16.9235 31.8254 18.374 31.5677 19.7805C31.31 21.1869 30.6657 22.4938 29.7069 23.5546C28.7481 24.6154 27.5128 25.3882 26.1394 25.7863V27.6514C26.1394 28.2197 25.9136 28.7648 25.5118 29.1667C25.1099 29.5685 24.5649 29.7943 23.9966 29.7943C23.4282 29.7943 22.8832 29.5685 22.4813 29.1667C22.0795 28.7648 21.8537 28.2197 21.8537 27.6514V23.9486C21.8537 22.7623 22.8137 21.8057 24 21.8057C24.8503 21.8106 25.6717 21.4977 26.3033 20.9284C26.935 20.3592 27.3312 19.5746 27.4145 18.7283C27.4977 17.8821 27.262 17.0353 26.7534 16.3539C26.2448 15.6724 25.5001 15.2055 24.6651 15.0446ZM24 39.0514C23.1861 39.0505 22.406 38.7263 21.8312 38.1502C21.2563 37.5741 20.9339 36.7933 20.9348 35.9794C20.9357 35.1656 21.2599 34.3854 21.836 33.8106C22.4121 33.2358 23.193 32.9134 24.0068 32.9143H24.0137C24.8275 32.9152 25.6077 33.2394 26.1825 33.8155C26.7573 34.3916 27.0797 35.1724 27.0788 35.9863C27.0779 36.8001 26.7538 37.5803 26.1776 38.1551C25.6015 38.7299 24.8207 39.0523 24.0068 39.0514H24Z" fill="white"/>
</svg>
