<svg width="74" height="111" viewBox="0 0 74 111" fill="none" xmlns="http://www.w3.org/2000/svg">
<path d="M37.01 5C33.3716 5 29.8822 6.44535 27.3095 9.01808C24.7368 11.5908 23.2914 15.0802 23.2914 18.7186V55.3014C23.2914 58.9398 24.7368 62.4292 27.3095 65.0019C29.8822 67.5747 33.3716 69.02 37.01 69.02C40.6484 69.02 44.1378 67.5747 46.7105 65.0019C49.2832 62.4292 50.7286 58.9398 50.7286 55.3014V18.7186C50.7286 15.0802 49.2832 11.5908 46.7105 9.01808C44.1378 6.44535 40.6484 5 37.01 5Z" stroke="white" stroke-width="9.14571" stroke-linecap="round" stroke-linejoin="round"/>
<path d="M69.02 46.1557V55.3014C69.02 63.791 65.6475 71.9329 59.6445 77.9359C53.6414 83.939 45.4996 87.3114 37.01 87.3114C28.5204 87.3114 20.3786 83.939 14.3755 77.9359C8.37247 71.9329 5 63.791 5 55.3014V46.1557" stroke="white" stroke-width="9.14571" stroke-linecap="round" stroke-linejoin="round"/>
<path d="M37.01 87.3114V105.603" stroke="white" stroke-width="9.14571" stroke-linecap="round" stroke-linejoin="round"/>
<path d="M18.7186 105.603H55.3014" stroke="white" stroke-width="9.14571" stroke-linecap="round" stroke-linejoin="round"/>
</svg>
