<svg width="153" height="29" viewBox="0 0 153 29" fill="none" xmlns="http://www.w3.org/2000/svg">
<path d="M13.256 13.752C14.672 11.64 15.776 9.936 16.568 8.64C17.384 7.344 17.984 6.324 18.368 5.58C18.752 4.812 18.968 4.248 19.016 3.888C19.064 3.504 19.04 3.156 18.944 2.844C18.872 2.556 18.716 2.316 18.476 2.124C18.26 1.908 18.032 1.8 17.792 1.8C17.696 1.8 17.588 1.74 17.468 1.62C17.252 1.284 17.6 1.044 18.512 0.899999C18.752 0.851998 19.028 0.827998 19.34 0.827998C19.676 0.827998 20 0.839998 20.312 0.864C20.624 0.864 20.912 0.887999 21.176 0.935999C21.44 0.983998 21.644 1.044 21.788 1.116C22.004 1.236 22.136 1.452 22.184 1.764C22.256 2.076 22.232 2.448 22.112 2.88C22.04 3.072 21.968 3.276 21.896 3.492C21.824 3.684 21.68 3.972 21.464 4.356C21.248 4.716 20.936 5.232 20.528 5.904C20.144 6.552 19.604 7.416 18.908 8.496C18.572 9 18.2 9.564 17.792 10.188C17.384 10.812 16.964 11.448 16.532 12.096C16.124 12.72 15.728 13.332 15.344 13.932C14.984 14.508 14.66 15.024 14.372 15.48L9.476 23.076C8.564 24.372 7.88 25.428 7.424 26.244C6.992 27.06 6.692 27.552 6.524 27.72C6.236 27.96 5.876 28.056 5.444 28.008C5.036 27.96 4.76 27.804 4.616 27.54C4.592 27.492 4.556 27.216 4.508 26.712C4.46 26.184 4.412 25.56 4.364 24.84C4.004 20.88 3.704 17.616 3.464 15.048C3.224 12.48 3.02 10.428 2.852 8.892C2.708 7.356 2.6 6.252 2.528 5.58C2.456 4.908 2.408 4.512 2.384 4.392C2.216 3.936 2.012 3.492 1.772 3.06C1.556 2.628 1.376 2.376 1.232 2.304C1.064 2.208 0.956 2.088 0.908 1.944C0.884 1.776 0.908 1.644 0.98 1.548C1.052 1.476 1.28 1.416 1.664 1.368C2.048 1.296 2.48 1.248 2.96 1.224C3.464 1.176 3.944 1.152 4.4 1.152C4.88 1.152 5.24 1.164 5.48 1.188C5.912 1.26 6.236 1.368 6.452 1.512C6.692 1.632 6.872 1.848 6.992 2.16C7.112 2.4 7.232 3.192 7.352 4.536C7.472 5.88 7.58 7.56 7.676 9.576C7.748 10.632 7.832 11.796 7.928 13.068C8.024 14.34 8.12 15.552 8.216 16.704C8.312 17.832 8.396 18.792 8.468 19.584C8.54 20.352 8.6 20.76 8.648 20.808C8.648 20.856 8.816 20.628 9.152 20.124C9.488 19.62 9.872 19.008 10.304 18.288L13.256 13.752ZM30.7509 22.284C30.4629 22.836 30.1749 23.328 29.8869 23.76C29.5989 24.192 29.1909 24.66 28.6629 25.164H28.9509C29.6229 25.164 30.3309 24.888 31.0749 24.336C31.8189 23.784 32.5149 23.112 33.1629 22.32C33.8109 21.528 34.3749 20.688 34.8549 19.8C35.3349 18.888 35.6709 18.084 35.8629 17.388C35.9109 17.22 35.9829 17.148 36.0789 17.172C36.1749 17.196 36.2709 17.28 36.3669 17.424C36.4629 17.544 36.5229 17.712 36.5469 17.928C36.5949 18.12 36.5829 18.324 36.5109 18.54C36.4389 18.732 36.2949 19.044 36.0789 19.476C35.8869 19.908 35.6589 20.364 35.3949 20.844C35.1549 21.324 34.9149 21.768 34.6749 22.176C34.4349 22.584 34.2549 22.872 34.1349 23.04C33.7509 23.568 33.3189 24.072 32.8389 24.552C32.3829 25.008 31.8909 25.416 31.3629 25.776C30.8349 26.136 30.2709 26.424 29.6709 26.64C29.0709 26.832 28.4589 26.928 27.8349 26.928C27.7389 26.928 27.6069 26.928 27.4389 26.928C27.2949 26.928 27.1629 26.916 27.0429 26.892C26.8509 26.844 26.6829 26.844 26.5389 26.892C26.4189 26.916 26.2029 27.012 25.8909 27.18C25.1469 27.588 24.3669 27.864 23.5509 28.008C22.7349 28.152 21.9789 28.164 21.2829 28.044C19.8429 27.756 18.7389 27 17.9709 25.776C17.1789 24.552 16.8789 23.064 17.0709 21.312C17.1669 20.232 17.4189 19.176 17.8269 18.144C18.2349 17.112 18.7629 16.176 19.4109 15.336C20.0589 14.496 20.8149 13.776 21.6789 13.176C22.5429 12.552 23.4789 12.12 24.4869 11.88C26.0709 11.472 27.4149 11.472 28.5189 11.88C29.6469 12.288 30.4869 12.984 31.0389 13.968C31.6149 14.928 31.8909 16.14 31.8669 17.604C31.8429 19.044 31.4709 20.604 30.7509 22.284ZM20.9229 23.472C21.0189 24.336 21.2349 24.96 21.5709 25.344C21.9069 25.704 22.2549 25.92 22.6149 25.992C22.9989 26.064 23.3709 26.028 23.7309 25.884C24.0909 25.74 24.3429 25.572 24.4869 25.38C23.9829 24.636 23.6469 23.772 23.4789 22.788C23.3349 21.804 23.3109 20.784 23.4069 19.728C23.5029 18.672 23.7069 17.628 24.0189 16.596C24.3309 15.564 24.7149 14.64 25.1709 13.824C25.3869 13.488 25.4589 13.32 25.3869 13.32C24.5949 13.536 23.8869 14.028 23.2629 14.796C22.6629 15.54 22.1589 16.416 21.7509 17.424C21.3669 18.408 21.0909 19.452 20.9229 20.556C20.7789 21.636 20.7789 22.608 20.9229 23.472ZM25.6389 24.372C26.4309 23.46 27.0429 22.44 27.4749 21.312C27.9309 20.184 28.2069 19.092 28.3029 18.036C28.4229 16.98 28.3869 16.044 28.1949 15.228C28.0029 14.412 27.6789 13.86 27.2229 13.572C27.0549 13.452 26.7789 13.692 26.3949 14.292C26.0349 14.892 25.6749 15.744 25.3149 16.848C24.9789 17.856 24.7869 18.84 24.7389 19.8C24.6909 20.736 24.7149 21.564 24.8109 22.284C24.9069 23.004 25.0389 23.568 25.2069 23.976C25.3749 24.36 25.5189 24.492 25.6389 24.372ZM37.7076 28.044C36.7476 27.852 35.9676 27.492 35.3676 26.964C34.7916 26.412 34.3716 25.764 34.1076 25.02C33.8196 24.252 33.6756 23.424 33.6756 22.536C33.6516 21.624 33.7476 20.724 33.9636 19.836C34.1556 18.924 34.4316 18.048 34.7916 17.208C35.1516 16.368 35.5716 15.636 36.0516 15.012C37.0596 13.668 38.3436 12.708 39.9036 12.132C41.4876 11.532 43.1076 11.436 44.7636 11.844C45.4356 12.06 45.9756 12.336 46.3836 12.672C46.8156 12.984 47.1276 13.344 47.3196 13.752C47.5356 14.136 47.6436 14.556 47.6436 15.012C47.6676 15.444 47.6316 15.888 47.5356 16.344C47.3436 17.112 47.0076 17.712 46.5276 18.144C46.0476 18.552 45.5196 18.828 44.9436 18.972C44.3916 19.092 43.8276 19.08 43.2516 18.936C42.6996 18.792 42.2676 18.552 41.9556 18.216C42.1716 18.192 42.4356 18.108 42.7476 17.964C43.0596 17.796 43.3716 17.568 43.6836 17.28C43.9956 16.992 44.2836 16.656 44.5476 16.272C44.8116 15.864 45.0036 15.408 45.1236 14.904C45.2676 14.304 45.2316 13.86 45.0156 13.572C44.8236 13.26 44.5236 13.092 44.1156 13.068C43.7316 13.02 43.2876 13.104 42.7836 13.32C42.3036 13.512 41.8356 13.8 41.3796 14.184C40.8516 14.64 40.3596 15.24 39.9036 15.984C39.4716 16.728 39.0876 17.532 38.7516 18.396C38.4396 19.236 38.1996 20.112 38.0316 21.024C37.8636 21.912 37.7796 22.728 37.7796 23.472C37.8036 24.768 38.1636 25.632 38.8596 26.064C39.5796 26.472 40.5156 26.52 41.6676 26.208C42.4116 26.016 43.2036 25.656 44.0436 25.128C44.9076 24.6 45.7476 23.976 46.5636 23.256C47.4036 22.512 48.1956 21.696 48.9396 20.808C49.6836 19.896 50.3316 18.972 50.8836 18.036C51.0036 17.844 51.0876 17.736 51.1356 17.712C51.2076 17.688 51.3276 17.688 51.4956 17.712C51.5436 17.736 51.5796 17.748 51.6036 17.748C51.6516 17.748 51.6996 17.76 51.7476 17.784C51.7956 17.808 51.8436 17.82 51.8916 17.82C51.9396 17.868 51.8676 18.06 51.6756 18.396C51.5076 18.708 51.2676 19.092 50.9556 19.548C50.6676 20.004 50.3316 20.484 49.9476 20.988C49.5876 21.468 49.2516 21.9 48.9396 22.284C48.2676 23.1 47.4996 23.904 46.6356 24.696C45.7956 25.464 44.8956 26.136 43.9356 26.712C42.9756 27.264 41.9676 27.672 40.9116 27.936C39.8556 28.224 38.7876 28.26 37.7076 28.044ZM60.6092 25.38C60.5612 25.548 60.7292 25.524 61.1132 25.308C61.5212 25.068 62.0252 24.648 62.6252 24.048C63.2492 23.448 63.9092 22.668 64.6052 21.708C65.3252 20.748 65.9732 19.62 66.5492 18.324C66.6692 18.132 66.7532 18.012 66.8012 17.964C66.8732 17.916 66.9692 17.892 67.0892 17.892C67.3052 17.892 67.4732 17.964 67.5932 18.108C67.7132 18.228 67.7372 18.384 67.6652 18.576C67.3052 19.416 66.8732 20.232 66.3692 21.024C65.8892 21.816 65.3732 22.572 64.8212 23.292C64.2692 24.012 63.6932 24.684 63.0932 25.308C62.4932 25.932 61.8932 26.472 61.2932 26.928C60.7172 27.36 60.0812 27.612 59.3852 27.684C58.6892 27.78 58.1012 27.708 57.6212 27.468C57.2132 27.276 56.9252 26.952 56.7572 26.496C56.5892 26.016 56.5652 25.464 56.6852 24.84C56.1572 25.272 55.6292 25.668 55.1012 26.028C54.5732 26.388 54.0572 26.688 53.5532 26.928C53.0492 27.168 52.5572 27.324 52.0772 27.396C51.6212 27.492 51.1772 27.48 50.7452 27.36C49.8572 27.144 49.1852 26.748 48.7292 26.172C48.2492 25.596 47.9612 24.924 47.8652 24.156C47.7452 23.388 47.7692 22.56 47.9372 21.672C48.1052 20.76 48.3812 19.872 48.7652 19.008C49.1492 18.144 49.6052 17.34 50.1332 16.596C50.6612 15.828 51.2252 15.192 51.8252 14.688C52.5452 14.112 53.2412 13.656 53.9132 13.32C54.5852 12.984 55.2572 12.732 55.9292 12.564C56.6252 12.372 57.3452 12.252 58.0892 12.204C58.8332 12.156 59.6252 12.132 60.4652 12.132C61.4732 12.156 62.3492 12.18 63.0932 12.204C63.8612 12.204 64.2692 12.216 64.3172 12.24C64.4612 12.288 64.5212 12.372 64.4972 12.492C64.4972 12.612 64.4012 12.828 64.2092 13.14C64.2092 13.14 64.0772 13.464 63.8132 14.112C63.5492 14.736 63.2252 15.6 62.8412 16.704C62.4812 17.808 62.0852 19.104 61.6532 20.592C61.2452 22.08 60.8972 23.676 60.6092 25.38ZM59.7092 13.5C58.6292 13.38 57.6452 13.56 56.7572 14.04C55.8692 14.52 55.1012 15.18 54.4532 16.02C53.8052 16.86 53.2772 17.832 52.8692 18.936C52.4612 20.04 52.1852 21.156 52.0412 22.284C51.9692 22.836 51.9452 23.34 51.9692 23.796C51.9932 24.228 52.0892 24.588 52.2572 24.876C52.4252 25.164 52.6652 25.344 52.9772 25.416C53.2892 25.464 53.6852 25.38 54.1652 25.164C54.4052 25.044 54.6812 24.876 54.9932 24.66C55.3292 24.444 55.6412 24.228 55.9292 24.012C56.2172 23.772 56.4692 23.544 56.6852 23.328C56.9012 23.112 57.0212 22.944 57.0452 22.824C57.0452 22.752 57.0692 22.536 57.1172 22.176C57.1892 21.816 57.3212 21.276 57.5132 20.556C57.7052 19.812 57.9692 18.864 58.3052 17.712C58.6652 16.56 59.1332 15.156 59.7092 13.5ZM68.2935 24.048C68.1495 24.6 68.1255 24.984 68.2215 25.2C68.3415 25.416 68.5815 25.428 68.9415 25.236C69.8055 24.78 70.7535 23.964 71.7855 22.788C72.8175 21.612 73.7175 19.956 74.4855 17.82C74.5095 17.748 74.5935 17.664 74.7375 17.568C74.8815 17.472 75.0135 17.424 75.1335 17.424C75.2535 17.4 75.3495 17.448 75.4215 17.568C75.4935 17.664 75.4695 17.892 75.3495 18.252C74.8455 19.764 74.2455 21.06 73.5495 22.14C72.8775 23.196 72.1935 24.072 71.4975 24.768C70.8255 25.464 70.1775 26.004 69.5535 26.388C68.9535 26.772 68.4975 27.012 68.1855 27.108C67.8495 27.228 67.4175 27.3 66.8895 27.324C66.3615 27.372 65.9415 27.336 65.6295 27.216C65.1255 26.976 64.7775 26.64 64.5855 26.208C64.3935 25.776 64.2735 25.212 64.2255 24.516C64.2015 24.084 64.3215 23.34 64.5855 22.284C64.8255 21.204 65.1255 19.98 65.4855 18.612C65.8695 17.22 66.2775 15.756 66.7095 14.22C67.1415 12.684 67.5255 11.232 67.8615 9.864C68.2215 8.472 68.4975 7.248 68.6895 6.192C68.8815 5.136 68.9295 4.404 68.8335 3.996C68.8095 3.9 68.9655 3.78 69.3015 3.636C69.6375 3.492 70.0215 3.36 70.4535 3.24C70.9095 3.096 71.3415 2.976 71.7495 2.88C72.1575 2.76 72.4215 2.688 72.5415 2.664C72.8535 2.592 73.0815 2.568 73.2255 2.592C73.3935 2.616 73.5015 2.664 73.5495 2.736C73.6215 2.808 73.6575 2.892 73.6575 2.988C73.6575 3.084 73.6575 3.168 73.6575 3.24C73.6575 3.288 73.6335 3.408 73.5855 3.6C73.5615 3.792 73.4775 4.164 73.3335 4.716C73.2135 5.244 73.0335 5.976 72.7935 6.912C72.5775 7.848 72.2655 9.084 71.8575 10.62C71.4735 12.132 70.9815 13.992 70.3815 16.2C69.8055 18.408 69.1095 21.024 68.2935 24.048ZM78.5403 9.684C78.7323 8.94 78.9363 8.148 79.1523 7.308C79.3683 6.468 79.5363 5.688 79.6563 4.968C79.7763 4.248 79.8003 3.66 79.7283 3.204C79.6563 2.724 79.4283 2.46 79.0443 2.412C78.8523 2.388 78.7923 2.28 78.8643 2.088C78.9603 1.896 79.0563 1.752 79.1523 1.656C79.2483 1.512 79.5843 1.404 80.1603 1.332C80.7603 1.236 81.4683 1.176 82.2843 1.152C83.1243 1.128 84.0243 1.128 84.9843 1.152C85.9443 1.176 86.8683 1.224 87.7563 1.296C88.6443 1.344 89.4243 1.428 90.0963 1.548C90.7683 1.644 91.2363 1.764 91.5003 1.908C92.4843 2.172 93.2403 2.676 93.7683 3.42C94.2963 4.164 94.6203 5.028 94.7403 6.012C94.8843 6.996 94.8483 8.04 94.6323 9.144C94.4163 10.248 94.0683 11.292 93.5883 12.276C92.5803 14.34 91.2843 15.96 89.7003 17.136C88.1163 18.288 86.3043 18.924 84.2643 19.044C84.0723 19.068 83.7963 19.044 83.4363 18.972C83.1003 18.9 82.7643 18.804 82.4283 18.684C82.0923 18.564 81.7803 18.408 81.4923 18.216C81.2043 18.024 81.0123 17.808 80.9163 17.568C80.9163 17.544 80.8803 17.676 80.8083 17.964C80.7363 18.228 80.6283 18.6 80.4843 19.08C80.3643 19.536 80.2203 20.076 80.0523 20.7C79.9083 21.324 79.7523 21.972 79.5843 22.644C79.3923 23.316 79.2243 23.964 79.0803 24.588C78.9363 25.212 78.8043 25.764 78.6843 26.244C78.5883 26.724 78.5043 27.12 78.4323 27.432C78.3603 27.744 78.3123 27.912 78.2883 27.936L73.9323 27.9L78.5403 9.684ZM84.8403 3.06C84.8403 3.084 84.7683 3.36 84.6243 3.888C84.4803 4.392 84.3003 5.04 84.0843 5.832C83.8683 6.624 83.6283 7.488 83.3643 8.424C83.1243 9.336 82.8963 10.188 82.6803 10.98C82.4643 11.772 82.2843 12.444 82.1403 12.996C81.9963 13.548 81.9243 13.836 81.9243 13.86C81.9243 13.908 81.9603 13.908 82.0323 13.86C82.1043 13.812 82.1883 13.728 82.2843 13.608C82.4523 13.392 82.6923 13.2 83.0043 13.032C83.3403 12.84 83.6763 12.684 84.0123 12.564C84.3483 12.444 84.6603 12.372 84.9483 12.348C85.2363 12.3 85.4403 12.312 85.5603 12.384C85.7283 12.504 85.7763 12.612 85.7043 12.708C85.6323 12.804 85.4163 12.936 85.0563 13.104C84.6003 13.296 84.2043 13.56 83.8683 13.896C83.5563 14.232 83.2803 14.544 83.0403 14.832C82.5843 15.432 82.3203 15.9 82.2483 16.236C82.1763 16.572 82.2363 16.812 82.4283 16.956C82.6203 17.076 82.9083 17.112 83.2923 17.064C83.7003 16.992 84.1443 16.86 84.6243 16.668C85.1043 16.452 85.5843 16.188 86.0643 15.876C86.5683 15.54 87.0243 15.18 87.4323 14.796C88.1523 14.124 88.7883 13.308 89.3403 12.348C89.8923 11.388 90.3123 10.416 90.6003 9.432C90.8883 8.448 91.0203 7.524 90.9963 6.66C90.9963 5.772 90.7803 5.076 90.3483 4.572C90.0843 4.236 89.7123 3.948 89.2323 3.708C88.7763 3.468 88.2843 3.288 87.7563 3.168C87.2523 3.024 86.7363 2.952 86.2083 2.952C85.6803 2.928 85.2243 2.964 84.8403 3.06ZM104.099 17.604C103.571 18.42 102.911 19.116 102.119 19.692C101.351 20.268 100.511 20.748 99.5986 21.132C98.7106 21.492 97.7986 21.768 96.8626 21.96C95.9266 22.152 95.0266 22.272 94.1626 22.32C94.0426 23.856 94.3546 24.912 95.0986 25.488C95.8666 26.04 97.0426 26.088 98.6266 25.632C99.1546 25.488 99.7666 25.2 100.463 24.768C101.183 24.312 101.915 23.748 102.659 23.076C103.427 22.38 104.183 21.576 104.927 20.664C105.671 19.728 106.331 18.696 106.907 17.568C106.955 17.52 107.075 17.484 107.267 17.46C107.459 17.436 107.555 17.448 107.555 17.496C107.243 18.624 106.739 19.74 106.043 20.844C105.347 21.948 104.543 22.956 103.631 23.868C102.743 24.78 101.771 25.56 100.715 26.208C99.6826 26.856 98.6626 27.3 97.6546 27.54C96.8866 27.732 96.0946 27.816 95.2786 27.792C94.4866 27.768 93.7306 27.612 93.0106 27.324C92.2906 27.036 91.6666 26.604 91.1386 26.028C90.5866 25.452 90.2146 24.696 90.0226 23.76C89.7826 22.656 89.8306 21.492 90.1666 20.268C90.5026 19.044 91.0306 17.892 91.7506 16.812C92.4706 15.732 93.3346 14.796 94.3426 14.004C95.3506 13.212 96.4306 12.684 97.5826 12.42C98.2546 12.276 98.9386 12.192 99.6346 12.168C100.331 12.144 100.979 12.192 101.579 12.312C102.203 12.432 102.755 12.624 103.235 12.888C103.739 13.152 104.123 13.488 104.387 13.896C104.771 14.472 104.939 15.06 104.891 15.66C104.843 16.236 104.579 16.884 104.099 17.604ZM94.4506 20.592C94.6666 20.592 94.8706 20.58 95.0626 20.556C95.2786 20.532 95.4826 20.496 95.6746 20.448C96.1066 20.352 96.5626 20.184 97.0426 19.944C97.5226 19.704 97.9786 19.428 98.4106 19.116C98.8426 18.804 99.2266 18.468 99.5626 18.108C99.9226 17.724 100.199 17.352 100.391 16.992C100.655 16.512 100.847 16.032 100.967 15.552C101.111 15.072 101.159 14.652 101.111 14.292C101.039 13.812 100.847 13.5 100.535 13.356C100.223 13.212 99.8386 13.212 99.3826 13.356C98.9506 13.476 98.4826 13.74 97.9786 14.148C97.4746 14.556 97.0066 15.084 96.5746 15.732C96.2386 16.212 95.8786 16.836 95.4946 17.604C95.1346 18.372 94.7866 19.368 94.4506 20.592ZM104.015 24.912C104.087 24.624 104.207 24.216 104.375 23.688C104.519 23.136 104.687 22.572 104.879 21.996C105.047 21.396 105.215 20.82 105.383 20.268C105.527 19.716 105.647 19.272 105.743 18.936C105.935 18.36 106.091 17.784 106.211 17.208C106.355 16.608 106.463 16.056 106.535 15.552C106.607 15.048 106.643 14.604 106.643 14.22C106.667 13.836 106.643 13.56 106.571 13.392C106.523 13.224 106.499 13.128 106.499 13.104C106.499 13.056 106.535 12.984 106.607 12.888C106.751 12.792 106.931 12.72 107.147 12.672C107.387 12.6 107.639 12.552 107.903 12.528C108.191 12.504 108.467 12.504 108.731 12.528C109.019 12.552 109.283 12.6 109.523 12.672C109.763 12.744 109.991 12.924 110.207 13.212C110.423 13.476 110.579 13.776 110.675 14.112L110.783 14.688L111.215 14.364C111.383 14.22 111.599 14.064 111.863 13.896C112.127 13.728 112.391 13.56 112.655 13.392C112.943 13.224 113.219 13.08 113.483 12.96C113.747 12.816 113.951 12.708 114.095 12.636C115.223 12.228 116.231 12.216 117.119 12.6C118.031 12.984 118.619 13.644 118.883 14.58C119.027 15.228 119.027 16.032 118.883 16.992C118.739 17.928 118.415 19.176 117.911 20.736C117.623 21.648 117.383 22.38 117.191 22.932C117.023 23.484 116.891 23.94 116.795 24.3C116.699 24.636 116.615 24.9 116.543 25.092C116.495 25.284 116.435 25.464 116.363 25.632C116.195 26.112 116.171 26.388 116.291 26.46C116.435 26.508 116.675 26.4 117.011 26.136C117.371 25.848 117.791 25.428 118.271 24.876C118.775 24.324 119.291 23.676 119.819 22.932C120.371 22.164 120.911 21.336 121.439 20.448C121.967 19.536 122.435 18.588 122.843 17.604L123.239 17.568C123.359 17.544 123.455 17.544 123.527 17.568C123.623 17.592 123.671 17.628 123.671 17.676C123.503 18.18 123.251 18.828 122.915 19.62C122.579 20.388 122.171 21.204 121.691 22.068C121.211 22.932 120.671 23.796 120.071 24.66C119.495 25.5 118.883 26.244 118.235 26.892C117.587 27.516 116.915 27.984 116.219 28.296C115.547 28.608 114.875 28.656 114.203 28.44C112.979 28.008 112.415 27.132 112.511 25.812C112.511 25.596 112.523 25.38 112.547 25.164C112.595 24.948 112.655 24.684 112.727 24.372C112.823 24.036 112.943 23.64 113.087 23.184C113.231 22.728 113.411 22.164 113.627 21.492C114.275 19.524 114.695 18.036 114.887 17.028C115.103 16.02 115.163 15.312 115.067 14.904C114.899 14.256 114.527 14.004 113.951 14.148C113.375 14.292 112.535 14.856 111.431 15.84L110.531 16.668L109.775 19.152L107.795 26.1L107.471 27.432H105.455C104.903 27.432 104.435 27.42 104.051 27.396C103.643 27.396 103.415 27.384 103.367 27.36C103.343 27.288 103.391 27.024 103.511 26.568L104.015 24.912ZM124.333 28.044C123.373 27.852 122.593 27.492 121.993 26.964C121.417 26.412 120.997 25.764 120.733 25.02C120.445 24.252 120.301 23.424 120.301 22.536C120.277 21.624 120.373 20.724 120.589 19.836C120.781 18.924 121.057 18.048 121.417 17.208C121.777 16.368 122.197 15.636 122.677 15.012C123.685 13.668 124.969 12.708 126.529 12.132C128.113 11.532 129.733 11.436 131.389 11.844C132.061 12.06 132.601 12.336 133.009 12.672C133.441 12.984 133.753 13.344 133.945 13.752C134.161 14.136 134.269 14.556 134.269 15.012C134.293 15.444 134.257 15.888 134.161 16.344C133.969 17.112 133.633 17.712 133.153 18.144C132.673 18.552 132.145 18.828 131.569 18.972C131.017 19.092 130.453 19.08 129.877 18.936C129.325 18.792 128.893 18.552 128.581 18.216C128.797 18.192 129.061 18.108 129.373 17.964C129.685 17.796 129.997 17.568 130.309 17.28C130.621 16.992 130.909 16.656 131.173 16.272C131.437 15.864 131.629 15.408 131.749 14.904C131.893 14.304 131.857 13.86 131.641 13.572C131.449 13.26 131.149 13.092 130.741 13.068C130.357 13.02 129.913 13.104 129.409 13.32C128.929 13.512 128.461 13.8 128.005 14.184C127.477 14.64 126.985 15.24 126.529 15.984C126.097 16.728 125.713 17.532 125.377 18.396C125.065 19.236 124.825 20.112 124.657 21.024C124.489 21.912 124.405 22.728 124.405 23.472C124.429 24.768 124.789 25.632 125.485 26.064C126.205 26.472 127.141 26.52 128.293 26.208C129.037 26.016 129.829 25.656 130.669 25.128C131.533 24.6 132.373 23.976 133.189 23.256C134.029 22.512 134.821 21.696 135.565 20.808C136.309 19.896 136.957 18.972 137.509 18.036C137.629 17.844 137.713 17.736 137.761 17.712C137.833 17.688 137.953 17.688 138.121 17.712C138.169 17.736 138.205 17.748 138.229 17.748C138.277 17.748 138.325 17.76 138.373 17.784C138.421 17.808 138.469 17.82 138.517 17.82C138.565 17.868 138.493 18.06 138.301 18.396C138.133 18.708 137.893 19.092 137.581 19.548C137.293 20.004 136.957 20.484 136.573 20.988C136.213 21.468 135.877 21.9 135.565 22.284C134.893 23.1 134.125 23.904 133.261 24.696C132.421 25.464 131.521 26.136 130.561 26.712C129.601 27.264 128.593 27.672 127.537 27.936C126.481 28.224 125.413 28.26 124.333 28.044ZM136.83 27.36C136.014 27.264 135.462 26.88 135.174 26.208C134.886 25.536 134.778 24.72 134.85 23.76C134.898 22.8 135.066 21.756 135.354 20.628C135.642 19.476 135.942 18.396 136.254 17.388C136.566 16.356 136.83 15.456 137.046 14.688C137.286 13.896 137.382 13.368 137.334 13.104C137.262 12.648 137.298 12.384 137.442 12.312C137.586 12.24 138.006 12.204 138.702 12.204C139.59 12.204 140.214 12.384 140.574 12.744C140.958 13.104 141.102 13.728 141.006 14.616C140.982 14.712 140.886 15.012 140.718 15.516C140.574 16.02 140.394 16.644 140.178 17.388C139.962 18.108 139.734 18.888 139.494 19.728C139.254 20.544 139.05 21.336 138.882 22.104C138.738 22.848 138.642 23.508 138.594 24.084C138.546 24.636 138.594 24.996 138.738 25.164C138.81 25.236 138.954 25.176 139.17 24.984C139.386 24.792 139.638 24.516 139.926 24.156C140.238 23.772 140.562 23.328 140.898 22.824C141.258 22.32 141.606 21.804 141.942 21.276C142.302 20.724 142.626 20.172 142.914 19.62C143.226 19.068 143.49 18.564 143.706 18.108C143.994 17.532 144.246 17.28 144.462 17.352C144.582 17.4 144.63 17.496 144.606 17.64C144.606 17.784 144.51 18.12 144.318 18.648C144.102 19.224 143.802 19.896 143.418 20.664C143.058 21.408 142.65 22.164 142.194 22.932C141.762 23.676 141.318 24.372 140.862 25.02C140.406 25.644 140.01 26.112 139.674 26.424C139.218 26.856 138.75 27.132 138.27 27.252C137.79 27.372 137.31 27.408 136.83 27.36ZM140.79 10.152C140.382 10.272 139.95 10.272 139.494 10.152C139.062 10.008 138.726 9.696 138.486 9.216C138.246 8.76 138.186 8.316 138.306 7.884C138.426 7.428 138.654 7.056 138.99 6.768C139.326 6.456 139.71 6.252 140.142 6.156C140.598 6.036 141.03 6.084 141.438 6.3C141.798 6.516 142.038 6.816 142.158 7.2C142.302 7.56 142.338 7.944 142.266 8.352C142.194 8.736 142.026 9.096 141.762 9.432C141.522 9.768 141.198 10.008 140.79 10.152ZM145.567 24.048C145.423 24.6 145.399 24.984 145.495 25.2C145.615 25.416 145.855 25.428 146.215 25.236C147.079 24.78 148.027 23.964 149.059 22.788C150.091 21.612 150.991 19.956 151.759 17.82C151.783 17.748 151.867 17.664 152.011 17.568C152.155 17.472 152.287 17.424 152.407 17.424C152.527 17.4 152.623 17.448 152.695 17.568C152.767 17.664 152.743 17.892 152.623 18.252C152.119 19.764 151.519 21.06 150.823 22.14C150.151 23.196 149.467 24.072 148.771 24.768C148.099 25.464 147.451 26.004 146.827 26.388C146.227 26.772 145.771 27.012 145.459 27.108C145.123 27.228 144.691 27.3 144.163 27.324C143.635 27.372 143.215 27.336 142.903 27.216C142.399 26.976 142.051 26.64 141.859 26.208C141.667 25.776 141.547 25.212 141.499 24.516C141.475 24.084 141.595 23.34 141.859 22.284C142.099 21.204 142.399 19.98 142.759 18.612C143.143 17.22 143.551 15.756 143.983 14.22C144.415 12.684 144.799 11.232 145.135 9.864C145.495 8.472 145.771 7.248 145.963 6.192C146.155 5.136 146.203 4.404 146.107 3.996C146.083 3.9 146.239 3.78 146.575 3.636C146.911 3.492 147.295 3.36 147.727 3.24C148.183 3.096 148.615 2.976 149.023 2.88C149.431 2.76 149.695 2.688 149.815 2.664C150.127 2.592 150.355 2.568 150.499 2.592C150.667 2.616 150.775 2.664 150.823 2.736C150.895 2.808 150.931 2.892 150.931 2.988C150.931 3.084 150.931 3.168 150.931 3.24C150.931 3.288 150.907 3.408 150.859 3.6C150.835 3.792 150.751 4.164 150.607 4.716C150.487 5.244 150.307 5.976 150.067 6.912C149.851 7.848 149.539 9.084 149.131 10.62C148.747 12.132 148.255 13.992 147.655 16.2C147.079 18.408 146.383 21.024 145.567 24.048Z" fill="#1E1E1E"/>
</svg>
