<?xml version="1.0" standalone="no"?>
<!DOCTYPE svg PUBLIC "-//W3C//DTD SVG 20010904//EN"
 "http://www.w3.org/TR/2001/REC-SVG-20010904/DTD/svg10.dtd">
<svg version="1.0" xmlns="http://www.w3.org/2000/svg"
 width="700.000000pt" height="700.000000pt" viewBox="0 0 700.000000 700.000000"
 preserveAspectRatio="xMidYMid meet">
<metadata>
Created by potrace 1.14, written by Peter Selinger 2001-2017
</metadata>
<g transform="translate(0.000000,700.000000) scale(0.100000,-0.100000)"
fill="#000000" stroke="none">
<path d="M1110 6985 c-156 -32 -281 -98 -389 -206 -94 -94 -152 -194 -199
-344 -14 -45 -17 -290 -22 -2360 l-5 -2310 -248 -740 c-234 -696 -248 -742
-243 -794 11 -105 70 -184 163 -215 48 -16 141 -15 193 2 19 7 334 87 700 178
366 91 701 175 745 186 44 11 87 21 95 23 8 2 44 11 80 20 36 9 76 19 90 22
14 2 48 11 77 19 29 8 64 17 79 20 15 3 31 7 35 9 4 3 918 5 2030 5 1671 1
2036 3 2094 14 151 30 287 101 395 208 58 58 135 169 152 221 6 17 15 37 20
43 4 6 17 51 27 100 19 85 19 142 18 1414 l-2 1325 -28 48 c-36 61 -93 103
-163 118 l-54 12 0 576 c0 525 2 579 17 601 9 14 20 27 24 30 16 11 89 160
108 220 26 82 33 136 33 230 -1 158 -42 285 -136 422 -44 64 -46 71 -46 136 0
162 -46 280 -149 382 -104 103 -207 145 -370 149 -68 2 -91 7 -115 24 -17 11
-33 24 -36 27 -3 3 -16 11 -29 18 -13 8 -39 23 -58 33 -46 26 -166 66 -221 74
-53 8 -198 8 -232 1 -14 -3 -38 -8 -55 -11 -86 -17 -226 -83 -293 -140 l-30
-25 -580 0 -581 0 -7 46 c-9 61 -58 132 -118 169 l-49 30 -1326 2 c-1069 1
-1339 -1 -1391 -12z"/>
</g>
</svg>
